<svg id="svg" version="1.1" xmlns="http://www.w3.org/2000/svg" xmlns:xlink="http://www.w3.org/1999/xlink" width="400" height="400" viewBox="0, 0, 400,400"><g id="svgg"><path id="path0" d="M219.913 91.610 C 216.837 92.860,204.000 104.219,204.000 105.692 C 204.000 105.879,203.650 106.520,203.222 107.116 C 200.650 110.696,202.157 112.971,211.000 118.857 L 213.400 120.455 217.602 120.190 L 221.804 119.925 223.767 121.278 C 226.544 123.192,226.769 124.078,226.609 132.475 L 226.477 139.400 221.339 144.332 C 215.675 149.767,214.572 150.483,210.145 151.589 C 206.537 152.490,204.000 154.084,204.000 155.449 C 204.000 156.246,207.340 160.734,209.024 162.200 C 209.276 162.420,211.415 164.715,213.776 167.300 C 218.742 172.738,218.718 172.731,221.649 169.700 C 224.487 166.766,225.490 164.972,225.974 161.969 C 226.423 159.180,226.936 158.478,232.019 153.683 C 237.541 148.474,237.092 148.712,242.115 148.322 C 245.120 148.089,247.119 147.714,248.366 147.150 C 258.347 142.639,271.145 155.157,272.188 170.450 C 272.562 175.939,272.583 176.000,274.141 176.000 C 275.755 176.000,277.125 174.411,279.140 170.200 C 279.877 168.660,280.734 166.918,281.045 166.329 C 286.017 156.913,282.253 142.306,271.994 131.200 C 270.266 129.330,268.300 127.035,267.624 126.100 C 266.948 125.165,266.261 124.399,266.097 124.398 C 265.934 124.397,264.593 123.452,263.117 122.298 C 261.642 121.144,259.792 119.750,259.008 119.200 C 258.223 118.650,256.550 117.416,255.290 116.457 C 250.047 112.468,249.203 112.056,242.835 110.391 C 241.142 109.948,237.613 107.662,236.440 106.248 C 236.070 105.803,235.867 104.467,235.840 102.313 L 235.800 99.052 233.715 97.426 C 228.158 93.093,227.264 92.449,225.706 91.654 C 223.672 90.616,222.384 90.606,219.913 91.610 M146.600 100.695 C 143.018 101.219,143.649 103.312,148.261 106.200 C 152.889 109.099,158.857 113.347,159.563 114.244 C 162.335 117.768,158.641 123.186,151.055 126.721 C 146.807 128.700,145.759 128.548,141.265 125.300 C 130.256 117.344,129.615 117.038,128.062 119.012 C 125.566 122.185,129.098 131.721,134.479 136.339 C 136.627 138.182,139.305 140.000,139.873 140.000 C 140.110 140.000,141.301 140.457,142.521 141.015 C 144.270 141.816,145.738 142.101,149.469 142.364 C 152.071 142.548,155.786 143.030,157.723 143.436 L 161.247 144.174 164.325 147.587 C 166.018 149.464,168.663 152.440,170.202 154.200 C 171.741 155.960,173.197 157.580,173.438 157.800 C 173.678 158.020,175.017 159.550,176.412 161.200 C 177.807 162.850,179.194 164.446,179.493 164.747 C 179.792 165.048,181.497 167.118,183.282 169.347 C 185.067 171.576,186.831 173.670,187.202 174.000 C 187.574 174.330,193.297 181.080,199.920 189.000 C 206.544 196.920,212.774 204.300,213.766 205.400 C 216.049 207.932,216.299 209.139,215.208 212.375 C 210.963 224.976,218.367 237.731,231.500 240.444 C 236.919 241.563,237.165 239.762,232.792 231.015 C 228.883 223.194,228.860 222.800,232.161 220.000 C 237.802 215.215,244.383 213.401,248.113 215.602 C 249.299 216.301,252.000 220.495,252.000 221.636 C 252.000 224.084,257.463 232.800,258.998 232.800 C 259.338 232.800,261.684 228.978,262.218 227.553 C 262.538 226.699,263.090 225.235,263.445 224.300 C 267.329 214.065,259.881 203.381,246.600 200.137 C 235.250 197.365,236.495 198.357,216.800 176.410 C 215.150 174.571,213.516 172.782,213.169 172.434 C 209.141 168.390,194.013 151.239,188.979 145.010 C 186.486 141.924,183.787 138.680,182.983 137.800 C 178.488 132.885,177.243 129.592,177.215 122.549 C 177.150 106.574,165.121 97.987,146.600 100.695 M179.800 176.475 C 178.932 176.963,173.201 182.158,166.171 188.830 C 164.647 190.276,160.070 194.485,156.000 198.182 C 151.930 201.880,148.416 205.106,148.192 205.353 C 147.967 205.599,146.707 206.790,145.391 208.000 C 144.074 209.210,140.708 212.339,137.910 214.954 C 135.112 217.569,132.472 219.954,132.044 220.254 C 127.494 223.441,129.592 229.175,137.155 234.224 C 137.950 234.754,140.095 236.246,141.922 237.538 C 148.370 242.097,151.331 242.111,155.600 237.604 C 156.810 236.326,161.400 231.530,165.800 226.946 C 170.200 222.362,175.414 216.899,177.386 214.806 C 182.126 209.775,186.938 204.740,191.917 199.600 C 197.176 194.172,197.398 195.247,188.923 185.086 C 180.614 175.124,181.206 175.683,179.800 176.475 M201.000 247.088 C 196.232 247.278,195.233 249.054,198.060 252.314 C 199.301 253.744,199.637 257.082,198.826 259.910 C 198.583 260.756,198.604 262.035,198.885 263.545 C 199.426 266.457,199.173 267.478,197.377 269.628 C 195.940 271.347,195.747 272.949,196.891 273.656 C 197.575 274.079,206.849 274.002,207.662 273.567 C 208.643 273.042,208.625 271.025,207.630 270.030 C 205.421 267.821,205.601 266.396,208.087 266.409 C 210.418 266.421,212.400 268.162,212.400 270.197 C 212.400 272.981,216.437 274.782,219.940 273.561 C 222.976 272.502,219.875 266.235,215.924 265.445 C 215.180 265.296,214.740 264.902,214.573 264.235 C 214.223 262.840,214.527 262.536,216.987 261.821 C 219.463 261.101,219.490 261.073,219.799 258.962 C 220.163 256.480,219.753 256.209,215.515 256.133 C 208.539 256.008,207.087 256.828,209.207 259.695 C 210.262 261.122,209.974 261.966,208.217 262.592 C 205.928 263.407,205.509 262.048,205.665 254.299 C 205.797 247.707,205.582 246.447,204.400 246.887 C 204.290 246.928,202.760 247.018,201.000 247.088 M182.643 248.233 C 182.107 249.630,182.380 253.507,183.033 253.757 C 184.362 254.267,189.409 254.009,190.299 253.385 C 191.429 252.594,191.339 248.983,190.168 248.127 C 189.062 247.318,182.961 247.404,182.643 248.233 M226.229 248.229 C 225.259 249.198,225.363 253.045,226.374 253.586 C 227.457 254.166,232.925 254.115,233.520 253.520 C 233.784 253.256,234.000 252.032,234.000 250.800 C 234.000 249.568,233.784 248.344,233.520 248.080 C 232.770 247.330,227.010 247.447,226.229 248.229 M137.671 250.635 C 136.370 251.547,136.565 252.980,138.154 254.192 C 140.004 255.603,141.490 257.879,141.816 259.800 C 141.965 260.680,142.505 262.030,143.016 262.800 C 144.312 264.754,145.917 269.034,146.209 271.320 C 146.514 273.701,147.135 274.000,151.777 274.000 C 155.537 274.000,155.827 273.822,156.237 271.258 C 156.917 267.007,159.317 265.606,159.972 269.077 C 160.880 273.886,160.888 273.893,166.071 273.960 C 169.254 274.001,170.400 273.514,170.400 272.120 C 170.400 271.207,172.467 265.101,173.013 264.400 C 173.916 263.242,175.132 260.582,175.609 258.723 C 175.966 257.332,176.596 256.368,178.045 254.996 C 180.057 253.091,180.568 251.528,179.520 250.480 C 179.016 249.976,170.246 249.777,169.033 250.243 C 167.916 250.671,168.202 253.379,169.452 254.197 C 170.828 255.099,170.640 258.435,169.044 261.433 C 168.470 262.511,168.000 263.676,168.000 264.020 C 168.000 267.041,165.373 265.310,164.202 261.518 C 163.910 260.573,163.372 259.099,163.007 258.243 C 162.116 256.158,162.472 255.026,164.299 254.133 C 166.002 253.301,166.490 251.748,165.393 250.650 C 164.572 249.829,155.276 249.684,154.480 250.480 C 153.655 251.305,153.920 253.136,155.000 254.075 C 156.253 255.164,156.359 257.729,155.242 259.918 C 154.825 260.736,154.275 262.178,154.021 263.123 C 153.223 266.084,151.224 265.725,150.250 262.444 C 149.933 261.376,149.387 259.948,149.037 259.271 C 147.859 256.993,148.174 254.895,149.812 254.113 C 151.486 253.315,152.034 251.863,151.038 250.866 C 150.080 249.908,138.983 249.716,137.671 250.635 M240.039 250.657 C 238.823 251.509,239.004 252.577,240.640 254.213 C 242.066 255.639,242.079 255.682,241.986 258.726 C 241.935 260.417,241.917 263.533,241.946 265.651 L 242.000 269.503 243.202 270.001 C 243.863 270.275,245.124 271.241,246.005 272.149 L 247.606 273.800 252.703 273.929 L 257.800 274.058 260.277 272.129 C 261.639 271.068,263.123 269.930,263.575 269.600 C 264.331 269.047,264.393 268.607,264.356 264.000 C 264.333 261.250,264.312 258.223,264.309 257.273 C 264.304 255.949,264.547 255.290,265.351 254.451 C 268.280 251.394,266.520 249.934,260.105 250.099 C 253.909 250.259,252.895 251.181,255.568 254.225 C 257.477 256.399,257.791 264.914,256.091 268.388 C 255.244 270.119,252.804 270.580,251.231 269.305 C 248.981 267.484,248.947 255.693,251.187 254.124 C 252.122 253.469,252.311 251.156,251.486 250.471 C 250.656 249.782,241.065 249.939,240.039 250.657 M228.600 256.400 L 224.600 256.600 224.477 258.308 C 224.364 259.866,224.496 260.145,225.977 261.474 C 228.488 263.728,228.415 266.879,225.800 269.065 C 223.921 270.635,223.351 272.581,224.500 273.503 C 225.131 274.010,235.157 274.045,236.100 273.544 C 237.289 272.912,236.963 271.091,235.367 269.447 L 233.933 267.971 234.047 262.324 C 234.181 255.657,234.588 256.101,228.600 256.400 M182.100 256.665 C 181.039 257.093,181.537 259.633,183.000 261.253 C 185.293 263.791,184.885 268.154,182.191 269.904 C 180.398 271.068,180.208 272.995,181.826 273.610 C 183.343 274.187,192.927 274.113,193.520 273.520 C 194.488 272.552,194.058 270.889,192.421 269.267 C 190.239 267.108,189.716 262.503,191.207 258.582 C 191.972 256.569,191.628 256.397,186.913 256.432 C 184.541 256.449,182.375 256.554,182.100 256.665 " stroke="none" fill="#ffffff" fill-rule="evenodd"></path><path id="path1" d="M190.485 32.674 C 189.981 32.776,189.353 33.206,189.089 33.630 C 188.794 34.102,188.159 34.400,187.450 34.400 C 185.806 34.400,183.200 35.244,183.200 35.776 C 183.200 36.023,182.421 36.455,181.468 36.737 C 180.516 37.018,179.439 37.552,179.075 37.924 C 178.710 38.296,177.837 39.050,177.135 39.600 C 174.922 41.332,40.400 175.861,40.400 176.342 C 40.400 176.594,40.152 176.800,39.849 176.800 C 39.545 176.800,39.079 177.327,38.812 177.971 C 38.545 178.615,38.098 179.230,37.817 179.338 C 37.537 179.446,37.064 180.358,36.767 181.367 C 36.469 182.375,36.023 183.200,35.776 183.200 C 35.254 183.200,34.400 185.795,34.400 187.382 C 34.400 188.030,34.035 188.767,33.500 189.200 C 31.857 190.529,31.930 210.647,33.579 211.079 C 34.135 211.224,34.345 211.814,34.518 213.725 C 34.671 215.415,34.969 216.375,35.470 216.792 C 35.872 217.127,36.443 218.093,36.741 218.941 C 37.287 220.498,37.460 220.750,39.607 223.114 C 40.263 223.836,40.800 224.589,40.800 224.787 C 40.800 224.984,41.151 225.257,41.580 225.394 C 42.008 225.530,42.467 225.983,42.600 226.400 C 42.733 226.817,43.164 227.262,43.560 227.387 C 43.955 227.513,44.482 228.062,44.731 228.608 C 44.979 229.153,45.428 229.600,45.727 229.600 C 46.027 229.600,46.477 230.050,46.727 230.600 C 46.978 231.150,47.428 231.600,47.727 231.600 C 48.027 231.600,48.477 232.050,48.727 232.600 C 48.978 233.150,49.428 233.600,49.727 233.600 C 50.027 233.600,50.477 234.050,50.727 234.600 C 50.978 235.150,51.428 235.600,51.727 235.600 C 52.027 235.600,52.477 236.050,52.727 236.600 C 52.978 237.150,53.428 237.600,53.727 237.600 C 54.027 237.600,54.477 238.050,54.727 238.600 C 54.978 239.150,55.428 239.600,55.727 239.600 C 56.027 239.600,56.477 240.050,56.727 240.600 C 56.978 241.150,57.428 241.600,57.727 241.600 C 58.027 241.600,58.477 242.050,58.727 242.600 C 58.978 243.150,59.428 243.600,59.727 243.600 C 60.027 243.600,60.477 244.050,60.727 244.600 C 60.978 245.150,61.428 245.600,61.727 245.600 C 62.027 245.600,62.477 246.050,62.727 246.600 C 62.978 247.150,63.428 247.600,63.727 247.600 C 64.027 247.600,64.477 248.050,64.727 248.600 C 64.978 249.150,65.428 249.600,65.727 249.600 C 66.027 249.600,66.477 250.050,66.727 250.600 C 66.978 251.150,67.428 251.600,67.727 251.600 C 68.027 251.600,68.477 252.050,68.727 252.600 C 68.978 253.150,69.428 253.600,69.727 253.600 C 70.027 253.600,70.477 254.050,70.727 254.600 C 70.978 255.150,71.428 255.600,71.727 255.600 C 72.027 255.600,72.477 256.050,72.727 256.600 C 72.978 257.150,73.428 257.600,73.727 257.600 C 74.027 257.600,74.477 258.050,74.727 258.600 C 74.978 259.150,75.428 259.600,75.727 259.600 C 76.027 259.600,76.477 260.050,76.727 260.600 C 76.978 261.150,77.428 261.600,77.727 261.600 C 78.027 261.600,78.477 262.050,78.727 262.600 C 78.978 263.150,79.428 263.600,79.727 263.600 C 80.027 263.600,80.477 264.050,80.727 264.600 C 80.978 265.150,81.428 265.600,81.727 265.600 C 82.027 265.600,82.477 266.050,82.727 266.600 C 82.978 267.150,83.428 267.600,83.727 267.600 C 84.027 267.600,84.477 268.050,84.727 268.600 C 84.978 269.150,85.428 269.600,85.727 269.600 C 86.027 269.600,86.477 270.050,86.727 270.600 C 86.978 271.150,87.428 271.600,87.727 271.600 C 88.027 271.600,88.477 272.050,88.727 272.600 C 88.978 273.150,89.428 273.600,89.727 273.600 C 90.027 273.600,90.477 274.050,90.727 274.600 C 90.978 275.150,91.428 275.600,91.727 275.600 C 92.027 275.600,92.477 276.050,92.727 276.600 C 92.978 277.150,93.428 277.600,93.727 277.600 C 94.027 277.600,94.477 278.050,94.727 278.600 C 94.978 279.150,95.428 279.600,95.727 279.600 C 96.027 279.600,96.477 280.050,96.727 280.600 C 96.978 281.150,97.428 281.600,97.727 281.600 C 98.027 281.600,98.477 282.050,98.727 282.600 C 98.978 283.150,99.428 283.600,99.727 283.600 C 100.027 283.600,100.477 284.050,100.727 284.600 C 100.978 285.150,101.428 285.600,101.727 285.600 C 102.027 285.600,102.477 286.050,102.727 286.600 C 102.978 287.150,103.428 287.600,103.727 287.600 C 104.027 287.600,104.477 288.050,104.727 288.600 C 104.978 289.150,105.428 289.600,105.727 289.600 C 106.027 289.600,106.477 290.050,106.727 290.600 C 106.978 291.150,107.428 291.600,107.727 291.600 C 108.027 291.600,108.477 292.050,108.727 292.600 C 108.978 293.150,109.428 293.600,109.727 293.600 C 110.027 293.600,110.477 294.050,110.727 294.600 C 110.978 295.150,111.428 295.600,111.727 295.600 C 112.027 295.600,112.477 296.050,112.727 296.600 C 112.978 297.150,113.428 297.600,113.727 297.600 C 114.027 297.600,114.477 298.050,114.727 298.600 C 114.978 299.150,115.428 299.600,115.727 299.600 C 116.027 299.600,116.477 300.050,116.727 300.600 C 116.978 301.150,117.428 301.600,117.727 301.600 C 118.027 301.600,118.477 302.050,118.727 302.600 C 118.978 303.150,119.428 303.600,119.727 303.600 C 120.027 303.600,120.477 304.050,120.727 304.600 C 120.978 305.150,121.428 305.600,121.727 305.600 C 122.027 305.600,122.477 306.050,122.727 306.600 C 122.978 307.150,123.428 307.600,123.727 307.600 C 124.027 307.600,124.477 308.050,124.727 308.600 C 124.978 309.150,125.428 309.600,125.727 309.600 C 126.027 309.600,126.477 310.050,126.727 310.600 C 126.978 311.150,127.428 311.600,127.727 311.600 C 128.027 311.600,128.477 312.050,128.727 312.600 C 128.978 313.150,129.428 313.600,129.727 313.600 C 130.027 313.600,130.477 314.050,130.727 314.600 C 130.978 315.150,131.428 315.600,131.727 315.600 C 132.027 315.600,132.477 316.050,132.727 316.600 C 132.978 317.150,133.428 317.600,133.727 317.600 C 134.027 317.600,134.477 318.050,134.727 318.600 C 134.978 319.150,135.428 319.600,135.727 319.600 C 136.027 319.600,136.477 320.050,136.727 320.600 C 136.978 321.150,137.428 321.600,137.727 321.600 C 138.027 321.600,138.477 322.050,138.727 322.600 C 138.978 323.150,139.428 323.600,139.727 323.600 C 140.027 323.600,140.477 324.050,140.727 324.600 C 140.978 325.150,141.428 325.600,141.727 325.600 C 142.027 325.600,142.477 326.050,142.727 326.600 C 142.978 327.150,143.428 327.600,143.727 327.600 C 144.027 327.600,144.477 328.050,144.727 328.600 C 144.978 329.150,145.428 329.600,145.727 329.600 C 146.027 329.600,146.477 330.050,146.727 330.600 C 146.978 331.150,147.428 331.600,147.727 331.600 C 148.027 331.600,148.477 332.050,148.727 332.600 C 148.978 333.150,149.428 333.600,149.727 333.600 C 150.027 333.600,150.477 334.050,150.727 334.600 C 150.978 335.150,151.428 335.600,151.727 335.600 C 152.027 335.600,152.477 336.050,152.727 336.600 C 152.978 337.150,153.428 337.600,153.727 337.600 C 154.027 337.600,154.477 338.050,154.727 338.600 C 154.978 339.150,155.428 339.600,155.727 339.600 C 156.027 339.600,156.477 340.050,156.727 340.600 C 156.978 341.150,157.428 341.600,157.727 341.600 C 158.027 341.600,158.477 342.050,158.727 342.600 C 158.978 343.150,159.428 343.600,159.727 343.600 C 160.027 343.600,160.477 344.050,160.727 344.600 C 160.978 345.150,161.428 345.600,161.727 345.600 C 162.027 345.600,162.477 346.050,162.727 346.600 C 162.978 347.150,163.428 347.600,163.727 347.600 C 164.027 347.600,164.477 348.050,164.727 348.600 C 164.978 349.150,165.428 349.600,165.727 349.600 C 166.027 349.600,166.477 350.050,166.727 350.600 C 166.978 351.150,167.428 351.600,167.727 351.600 C 168.027 351.600,168.477 352.050,168.727 352.600 C 168.978 353.150,169.428 353.600,169.727 353.600 C 170.027 353.600,170.477 354.050,170.727 354.600 C 170.978 355.150,171.445 355.600,171.764 355.600 C 172.084 355.600,172.457 355.951,172.594 356.380 C 172.730 356.808,173.183 357.267,173.600 357.400 C 174.017 357.533,174.470 357.992,174.606 358.420 C 174.743 358.849,175.016 359.200,175.213 359.200 C 175.411 359.200,176.115 359.695,176.778 360.300 C 179.303 362.603,180.113 363.161,181.313 363.425 C 181.993 363.574,182.833 364.046,183.179 364.473 C 183.555 364.938,184.530 365.345,185.604 365.486 C 186.592 365.616,188.027 366.144,188.793 366.661 C 191.631 368.575,212.400 367.917,212.400 365.914 C 212.400 365.741,213.018 365.600,213.774 365.600 C 215.571 365.600,217.200 364.963,217.200 364.261 C 217.200 363.920,217.814 363.604,218.778 363.450 C 219.646 363.311,220.591 362.864,220.878 362.456 C 221.165 362.048,221.796 361.590,222.280 361.437 C 222.763 361.284,223.264 360.828,223.393 360.423 C 223.521 360.018,223.994 359.590,224.443 359.473 C 224.892 359.355,225.353 358.903,225.467 358.467 C 225.581 358.031,226.031 357.581,226.467 357.467 C 226.903 357.353,227.353 356.903,227.467 356.467 C 227.581 356.031,228.031 355.581,228.467 355.467 C 228.903 355.353,229.353 354.903,229.467 354.467 C 229.581 354.031,230.031 353.581,230.467 353.467 C 230.903 353.353,231.353 352.903,231.467 352.467 C 231.581 352.031,232.031 351.581,232.467 351.467 C 232.903 351.353,233.353 350.903,233.467 350.467 C 233.581 350.031,234.031 349.581,234.467 349.467 C 234.903 349.353,235.353 348.903,235.467 348.467 C 235.581 348.031,236.031 347.581,236.467 347.467 C 236.903 347.353,237.353 346.903,237.467 346.467 C 237.581 346.031,238.031 345.581,238.467 345.467 C 238.903 345.353,239.353 344.903,239.467 344.467 C 239.581 344.031,240.031 343.581,240.467 343.467 C 240.903 343.353,241.353 342.903,241.467 342.467 C 241.581 342.031,242.031 341.581,242.467 341.467 C 242.903 341.353,243.353 340.903,243.467 340.467 C 243.581 340.031,244.031 339.581,244.467 339.467 C 244.903 339.353,245.353 338.903,245.467 338.467 C 245.581 338.031,246.031 337.581,246.467 337.467 C 246.903 337.353,247.353 336.903,247.467 336.467 C 247.581 336.031,248.031 335.581,248.467 335.467 C 248.903 335.353,249.353 334.903,249.467 334.467 C 249.581 334.031,250.031 333.581,250.467 333.467 C 250.903 333.353,251.353 332.903,251.467 332.467 C 251.581 332.031,252.031 331.581,252.467 331.467 C 252.903 331.353,253.353 330.903,253.467 330.467 C 253.581 330.031,254.031 329.581,254.467 329.467 C 254.903 329.353,255.353 328.903,255.467 328.467 C 255.581 328.031,256.031 327.581,256.467 327.467 C 256.903 327.353,257.353 326.903,257.467 326.467 C 257.581 326.031,258.031 325.581,258.467 325.467 C 258.903 325.353,259.353 324.903,259.467 324.467 C 259.581 324.031,260.031 323.581,260.467 323.467 C 260.903 323.353,261.353 322.903,261.467 322.467 C 261.581 322.031,262.031 321.581,262.467 321.467 C 262.903 321.353,263.353 320.903,263.467 320.467 C 263.581 320.031,264.031 319.581,264.467 319.467 C 264.903 319.353,265.353 318.903,265.467 318.467 C 265.581 318.031,266.031 317.581,266.467 317.467 C 266.903 317.353,267.353 316.903,267.467 316.467 C 267.581 316.031,268.031 315.581,268.467 315.467 C 268.903 315.353,269.353 314.903,269.467 314.467 C 269.581 314.031,270.031 313.581,270.467 313.467 C 270.903 313.353,271.353 312.903,271.467 312.467 C 271.581 312.031,272.031 311.581,272.467 311.467 C 272.903 311.353,273.353 310.903,273.467 310.467 C 273.581 310.031,274.031 309.581,274.467 309.467 C 274.903 309.353,275.353 308.903,275.467 308.467 C 275.581 308.031,276.031 307.581,276.467 307.467 C 276.903 307.353,277.353 306.903,277.467 306.467 C 277.581 306.031,278.031 305.581,278.467 305.467 C 278.903 305.353,279.353 304.903,279.467 304.467 C 279.581 304.031,280.031 303.581,280.467 303.467 C 280.903 303.353,281.353 302.903,281.467 302.467 C 281.581 302.031,282.031 301.581,282.467 301.467 C 282.903 301.353,283.353 300.903,283.467 300.467 C 283.581 300.031,284.031 299.581,284.467 299.467 C 284.903 299.353,285.353 298.903,285.467 298.467 C 285.581 298.031,286.031 297.581,286.467 297.467 C 286.903 297.353,287.353 296.903,287.467 296.467 C 287.581 296.031,288.031 295.581,288.467 295.467 C 288.903 295.353,289.353 294.903,289.467 294.467 C 289.581 294.031,290.031 293.581,290.467 293.467 C 290.903 293.353,291.353 292.903,291.467 292.467 C 291.581 292.031,292.031 291.581,292.467 291.467 C 292.903 291.353,293.353 290.903,293.467 290.467 C 293.581 290.031,294.031 289.581,294.467 289.467 C 294.903 289.353,295.353 288.903,295.467 288.467 C 295.581 288.031,296.031 287.581,296.467 287.467 C 296.903 287.353,297.353 286.903,297.467 286.467 C 297.581 286.031,298.031 285.581,298.467 285.467 C 298.903 285.353,299.353 284.903,299.467 284.467 C 299.581 284.031,300.031 283.581,300.467 283.467 C 300.903 283.353,301.353 282.903,301.467 282.467 C 301.581 282.031,302.031 281.581,302.467 281.467 C 302.903 281.353,303.353 280.903,303.467 280.467 C 303.581 280.031,304.031 279.581,304.467 279.467 C 304.903 279.353,305.353 278.903,305.467 278.467 C 305.581 278.031,306.031 277.581,306.467 277.467 C 306.903 277.353,307.353 276.903,307.467 276.467 C 307.581 276.031,308.031 275.581,308.467 275.467 C 308.903 275.353,309.353 274.903,309.467 274.467 C 309.581 274.031,310.031 273.581,310.467 273.467 C 310.903 273.353,311.353 272.903,311.467 272.467 C 311.581 272.031,312.031 271.581,312.467 271.467 C 312.903 271.353,313.353 270.903,313.467 270.467 C 313.581 270.031,314.031 269.581,314.467 269.467 C 314.903 269.353,315.353 268.903,315.467 268.467 C 315.581 268.031,316.031 267.581,316.467 267.467 C 316.903 267.353,317.353 266.903,317.467 266.467 C 317.581 266.031,318.031 265.581,318.467 265.467 C 318.903 265.353,319.353 264.903,319.467 264.467 C 319.581 264.031,320.031 263.581,320.467 263.467 C 320.903 263.353,321.353 262.903,321.467 262.467 C 321.581 262.031,322.031 261.581,322.467 261.467 C 322.903 261.353,323.353 260.903,323.467 260.467 C 323.581 260.031,324.031 259.581,324.467 259.467 C 324.903 259.353,325.353 258.903,325.467 258.467 C 325.581 258.031,326.031 257.581,326.467 257.467 C 326.903 257.353,327.353 256.903,327.467 256.467 C 327.581 256.031,328.031 255.581,328.467 255.467 C 328.903 255.353,329.353 254.903,329.467 254.467 C 329.581 254.031,330.031 253.581,330.467 253.467 C 330.903 253.353,331.353 252.903,331.467 252.467 C 331.581 252.031,332.031 251.581,332.467 251.467 C 332.903 251.353,333.353 250.903,333.467 250.467 C 333.581 250.031,334.031 249.581,334.467 249.467 C 334.903 249.353,335.353 248.903,335.467 248.467 C 335.581 248.031,336.031 247.581,336.467 247.467 C 336.903 247.353,337.353 246.903,337.467 246.467 C 337.581 246.031,338.031 245.581,338.467 245.467 C 338.903 245.353,339.353 244.903,339.467 244.467 C 339.581 244.031,340.031 243.581,340.467 243.467 C 340.903 243.353,341.353 242.903,341.467 242.467 C 341.581 242.031,342.031 241.581,342.467 241.467 C 342.903 241.353,343.353 240.903,343.467 240.467 C 343.581 240.031,344.031 239.581,344.467 239.467 C 344.903 239.353,345.353 238.903,345.467 238.467 C 345.581 238.031,346.031 237.581,346.467 237.467 C 346.903 237.353,347.353 236.903,347.467 236.467 C 347.581 236.031,348.031 235.581,348.467 235.467 C 348.903 235.353,349.353 234.903,349.467 234.467 C 349.581 234.031,350.031 233.581,350.467 233.467 C 350.903 233.353,351.353 232.903,351.467 232.467 C 351.581 232.031,352.031 231.581,352.467 231.467 C 352.903 231.353,353.353 230.903,353.467 230.467 C 353.581 230.031,354.031 229.581,354.467 229.467 C 354.903 229.353,355.353 228.903,355.467 228.467 C 355.581 228.031,356.031 227.581,356.467 227.467 C 356.903 227.353,357.353 226.903,357.467 226.467 C 357.581 226.031,358.031 225.581,358.467 225.467 C 358.903 225.353,359.351 224.908,359.464 224.478 C 359.576 224.049,360.103 223.499,360.634 223.257 C 361.165 223.015,361.600 222.551,361.600 222.227 C 361.600 221.902,362.050 221.186,362.600 220.636 C 363.150 220.086,363.600 219.244,363.600 218.764 C 363.600 218.284,364.022 217.500,364.538 217.022 C 365.180 216.427,365.564 215.497,365.752 214.079 C 365.934 212.709,366.327 211.726,366.913 211.180 C 368.307 209.882,368.298 190.595,366.903 189.110 C 366.357 188.528,365.901 187.388,365.737 186.193 C 365.574 185.006,365.132 183.896,364.617 183.380 C 364.148 182.912,363.546 181.799,363.279 180.906 C 363.012 180.013,362.524 179.180,362.196 179.054 C 361.868 178.928,361.600 178.554,361.600 178.222 C 361.600 177.890,361.150 177.324,360.600 176.963 C 360.050 176.603,359.600 176.055,359.600 175.745 C 359.600 175.436,359.150 174.978,358.600 174.727 C 358.050 174.477,357.600 174.027,357.600 173.727 C 357.600 173.428,357.153 172.979,356.608 172.731 C 356.062 172.482,355.513 171.955,355.387 171.560 C 355.262 171.164,354.817 170.733,354.400 170.600 C 353.983 170.467,353.533 170.017,353.400 169.600 C 353.267 169.183,352.817 168.733,352.400 168.600 C 351.983 168.467,351.533 168.017,351.400 167.600 C 351.267 167.183,350.817 166.733,350.400 166.600 C 349.983 166.467,349.533 166.017,349.400 165.600 C 349.267 165.183,348.817 164.733,348.400 164.600 C 347.983 164.467,347.533 164.017,347.400 163.600 C 347.267 163.183,346.817 162.733,346.400 162.600 C 345.983 162.467,345.533 162.017,345.400 161.600 C 345.267 161.183,344.817 160.733,344.400 160.600 C 343.983 160.467,343.533 160.017,343.400 159.600 C 343.267 159.183,342.817 158.733,342.400 158.600 C 341.983 158.467,341.533 158.017,341.400 157.600 C 341.267 157.183,340.817 156.733,340.400 156.600 C 339.983 156.467,339.533 156.017,339.400 155.600 C 339.267 155.183,338.817 154.733,338.400 154.600 C 337.983 154.467,337.533 154.017,337.400 153.600 C 337.267 153.183,336.817 152.733,336.400 152.600 C 335.983 152.467,335.533 152.017,335.400 151.600 C 335.267 151.183,334.817 150.733,334.400 150.600 C 333.983 150.467,333.533 150.017,333.400 149.600 C 333.267 149.183,332.817 148.733,332.400 148.600 C 331.983 148.467,331.533 148.017,331.400 147.600 C 331.267 147.183,330.817 146.733,330.400 146.600 C 329.983 146.467,329.533 146.017,329.400 145.600 C 329.267 145.183,328.817 144.733,328.400 144.600 C 327.983 144.467,327.533 144.017,327.400 143.600 C 327.267 143.183,326.817 142.733,326.400 142.600 C 325.983 142.467,325.533 142.017,325.400 141.600 C 325.267 141.183,324.817 140.733,324.400 140.600 C 323.983 140.467,323.533 140.017,323.400 139.600 C 323.267 139.183,322.817 138.733,322.400 138.600 C 321.983 138.467,321.533 138.017,321.400 137.600 C 321.267 137.183,320.817 136.733,320.400 136.600 C 319.983 136.467,319.533 136.017,319.400 135.600 C 319.267 135.183,318.817 134.733,318.400 134.600 C 317.983 134.467,317.533 134.017,317.400 133.600 C 317.267 133.183,316.817 132.733,316.400 132.600 C 315.983 132.467,315.533 132.017,315.400 131.600 C 315.267 131.183,314.817 130.733,314.400 130.600 C 313.983 130.467,313.533 130.017,313.400 129.600 C 313.267 129.183,312.817 128.733,312.400 128.600 C 311.983 128.467,311.533 128.017,311.400 127.600 C 311.267 127.183,310.817 126.733,310.400 126.600 C 309.983 126.467,309.533 126.017,309.400 125.600 C 309.267 125.183,308.817 124.733,308.400 124.600 C 307.983 124.467,307.533 124.017,307.400 123.600 C 307.267 123.183,306.817 122.733,306.400 122.600 C 305.983 122.467,305.533 122.017,305.400 121.600 C 305.267 121.183,304.817 120.733,304.400 120.600 C 303.983 120.467,303.533 120.017,303.400 119.600 C 303.267 119.183,302.817 118.733,302.400 118.600 C 301.983 118.467,301.533 118.017,301.400 117.600 C 301.267 117.183,300.817 116.733,300.400 116.600 C 299.983 116.467,299.533 116.017,299.400 115.600 C 299.267 115.183,298.817 114.733,298.400 114.600 C 297.983 114.467,297.533 114.017,297.400 113.600 C 297.267 113.183,296.817 112.733,296.400 112.600 C 295.983 112.467,295.533 112.017,295.400 111.600 C 295.267 111.183,294.817 110.733,294.400 110.600 C 293.983 110.467,293.533 110.017,293.400 109.600 C 293.267 109.183,292.817 108.733,292.400 108.600 C 291.983 108.467,291.533 108.017,291.400 107.600 C 291.267 107.183,290.817 106.733,290.400 106.600 C 289.983 106.467,289.533 106.017,289.400 105.600 C 289.267 105.183,288.817 104.733,288.400 104.600 C 287.983 104.467,287.533 104.017,287.400 103.600 C 287.267 103.183,286.817 102.733,286.400 102.600 C 285.983 102.467,285.533 102.017,285.400 101.600 C 285.267 101.183,284.817 100.733,284.400 100.600 C 283.983 100.467,283.533 100.017,283.400 99.600 C 283.267 99.183,282.817 98.733,282.400 98.600 C 281.983 98.467,281.533 98.017,281.400 97.600 C 281.267 97.183,280.817 96.733,280.400 96.600 C 279.983 96.467,279.533 96.017,279.400 95.600 C 279.267 95.183,278.817 94.733,278.400 94.600 C 277.983 94.467,277.533 94.017,277.400 93.600 C 277.267 93.183,276.817 92.733,276.400 92.600 C 275.983 92.467,275.533 92.017,275.400 91.600 C 275.267 91.183,274.817 90.733,274.400 90.600 C 273.983 90.467,273.533 90.017,273.400 89.600 C 273.267 89.183,272.817 88.733,272.400 88.600 C 271.983 88.467,271.533 88.017,271.400 87.600 C 271.267 87.183,270.817 86.733,270.400 86.600 C 269.983 86.467,269.533 86.017,269.400 85.600 C 269.267 85.183,268.817 84.733,268.400 84.600 C 267.983 84.467,267.533 84.017,267.400 83.600 C 267.267 83.183,266.817 82.733,266.400 82.600 C 265.983 82.467,265.533 82.017,265.400 81.600 C 265.267 81.183,264.817 80.733,264.400 80.600 C 263.983 80.467,263.533 80.017,263.400 79.600 C 263.267 79.183,262.817 78.733,262.400 78.600 C 261.983 78.467,261.533 78.017,261.400 77.600 C 261.267 77.183,260.817 76.733,260.400 76.600 C 259.983 76.467,259.533 76.017,259.400 75.600 C 259.267 75.183,258.817 74.733,258.400 74.600 C 257.983 74.467,257.533 74.017,257.400 73.600 C 257.267 73.183,256.817 72.733,256.400 72.600 C 255.983 72.467,255.533 72.017,255.400 71.600 C 255.267 71.183,254.817 70.733,254.400 70.600 C 253.983 70.467,253.533 70.017,253.400 69.600 C 253.267 69.183,252.817 68.733,252.400 68.600 C 251.983 68.467,251.533 68.017,251.400 67.600 C 251.267 67.183,250.817 66.733,250.400 66.600 C 249.983 66.467,249.533 66.017,249.400 65.600 C 249.267 65.183,248.817 64.733,248.400 64.600 C 247.983 64.467,247.533 64.017,247.400 63.600 C 247.267 63.183,246.817 62.733,246.400 62.600 C 245.983 62.467,245.533 62.017,245.400 61.600 C 245.267 61.183,244.817 60.733,244.400 60.600 C 243.983 60.467,243.533 60.017,243.400 59.600 C 243.267 59.183,242.817 58.733,242.400 58.600 C 241.983 58.467,241.533 58.017,241.400 57.600 C 241.267 57.183,240.817 56.733,240.400 56.600 C 239.983 56.467,239.533 56.017,239.400 55.600 C 239.267 55.183,238.817 54.733,238.400 54.600 C 237.983 54.467,237.533 54.017,237.400 53.600 C 237.267 53.183,236.817 52.733,236.400 52.600 C 235.983 52.467,235.533 52.017,235.400 51.600 C 235.267 51.183,234.817 50.733,234.400 50.600 C 233.983 50.467,233.533 50.017,233.400 49.600 C 233.267 49.183,232.817 48.733,232.400 48.600 C 231.983 48.467,231.533 48.017,231.400 47.600 C 231.267 47.183,230.817 46.733,230.400 46.600 C 229.983 46.467,229.533 46.017,229.400 45.600 C 229.267 45.183,228.817 44.733,228.400 44.600 C 227.983 44.467,227.533 44.017,227.400 43.600 C 227.267 43.183,226.817 42.733,226.400 42.600 C 225.983 42.467,225.533 42.017,225.400 41.600 C 225.267 41.183,224.808 40.730,224.379 40.593 C 223.950 40.457,223.413 39.998,223.186 39.573 C 222.958 39.148,222.534 38.800,222.244 38.800 C 221.954 38.800,221.233 38.352,220.641 37.803 C 220.050 37.255,219.079 36.694,218.483 36.555 C 217.887 36.417,217.205 36.063,216.967 35.768 C 216.349 35.001,214.577 34.400,212.938 34.400 C 211.958 34.400,211.306 34.125,210.800 33.500 C 210.093 32.626,193.962 31.970,190.485 32.674 M225.706 91.654 C 227.264 92.449,228.158 93.093,233.715 97.426 L 235.800 99.052 235.840 102.313 C 235.867 104.467,236.070 105.803,236.440 106.248 C 237.613 107.662,241.142 109.948,242.835 110.391 C 249.203 112.056,250.047 112.468,255.290 116.457 C 256.550 117.416,258.223 118.650,259.008 119.200 C 259.792 119.750,261.642 121.144,263.117 122.298 C 264.593 123.452,265.934 124.397,266.097 124.398 C 266.261 124.399,266.948 125.165,267.624 126.100 C 268.300 127.035,270.266 129.330,271.994 131.200 C 282.253 142.306,286.017 156.913,281.045 166.329 C 280.734 166.918,279.877 168.660,279.140 170.200 C 277.125 174.411,275.755 176.000,274.141 176.000 C 272.583 176.000,272.562 175.939,272.188 170.450 C 271.145 155.157,258.347 142.639,248.366 147.150 C 247.119 147.714,245.120 148.089,242.115 148.322 C 237.092 148.712,237.541 148.474,232.019 153.683 C 226.936 158.478,226.423 159.180,225.974 161.969 C 225.490 164.972,224.487 166.766,221.649 169.700 C 218.718 172.731,218.742 172.738,213.776 167.300 C 211.415 164.715,209.276 162.420,209.024 162.200 C 207.340 160.734,204.000 156.246,204.000 155.449 C 204.000 154.084,206.537 152.490,210.145 151.589 C 214.572 150.483,215.675 149.767,221.339 144.332 L 226.477 139.400 226.609 132.475 C 226.769 124.078,226.544 123.192,223.767 121.278 L 221.804 119.925 217.602 120.190 L 213.400 120.455 211.000 118.857 C 202.157 112.971,200.650 110.696,203.222 107.116 C 203.650 106.520,204.000 105.879,204.000 105.692 C 204.000 105.178,214.352 95.019,216.313 93.609 C 220.095 90.888,223.014 90.281,225.706 91.654 M161.333 101.413 C 172.232 104.246,177.167 110.814,177.215 122.549 C 177.243 129.592,178.488 132.885,182.983 137.800 C 183.787 138.680,186.486 141.924,188.979 145.010 C 194.013 151.239,209.141 168.390,213.169 172.434 C 213.516 172.782,215.150 174.571,216.800 176.410 C 236.495 198.357,235.250 197.365,246.600 200.137 C 259.881 203.381,267.329 214.065,263.445 224.300 C 263.090 225.235,262.538 226.699,262.218 227.553 C 261.684 228.978,259.338 232.800,258.998 232.800 C 257.463 232.800,252.000 224.084,252.000 221.636 C 252.000 220.495,249.299 216.301,248.113 215.602 C 244.383 213.401,237.802 215.215,232.161 220.000 C 228.860 222.800,228.883 223.194,232.792 231.015 C 237.165 239.762,236.919 241.563,231.500 240.444 C 218.367 237.731,210.963 224.976,215.208 212.375 C 216.299 209.139,216.049 207.932,213.766 205.400 C 212.774 204.300,206.544 196.920,199.920 189.000 C 193.297 181.080,187.574 174.330,187.202 174.000 C 186.831 173.670,185.067 171.576,183.282 169.347 C 181.497 167.118,179.792 165.048,179.493 164.747 C 179.194 164.446,177.807 162.850,176.412 161.200 C 175.017 159.550,173.678 158.020,173.438 157.800 C 173.197 157.580,171.741 155.960,170.202 154.200 C 168.663 152.440,166.018 149.464,164.325 147.587 L 161.247 144.174 157.723 143.436 C 155.786 143.030,152.071 142.548,149.469 142.364 C 145.738 142.101,144.270 141.816,142.521 141.015 C 141.301 140.457,140.110 140.000,139.873 140.000 C 139.305 140.000,136.627 138.182,134.479 136.339 C 129.098 131.721,125.566 122.185,128.062 119.012 C 129.615 117.038,130.256 117.344,141.265 125.300 C 145.759 128.548,146.807 128.700,151.055 126.721 C 158.641 123.186,162.335 117.768,159.563 114.244 C 158.857 113.347,152.889 109.099,148.261 106.200 C 144.557 103.880,143.547 102.403,144.900 101.284 C 146.409 100.036,156.334 100.114,161.333 101.413 M181.423 176.306 C 182.867 177.311,195.999 193.695,195.993 194.486 C 195.988 195.098,194.641 196.788,191.917 199.600 C 186.938 204.740,182.126 209.775,177.386 214.806 C 175.414 216.899,170.200 222.362,165.800 226.946 C 161.400 231.530,156.810 236.326,155.600 237.604 C 151.331 242.111,148.370 242.097,141.922 237.538 C 140.095 236.246,137.950 234.754,137.155 234.224 C 129.592 229.175,127.494 223.441,132.044 220.254 C 132.472 219.954,135.112 217.569,137.910 214.954 C 140.708 212.339,144.074 209.210,145.391 208.000 C 146.707 206.790,147.967 205.599,148.192 205.353 C 148.416 205.106,151.930 201.880,156.000 198.182 C 160.070 194.485,164.647 190.276,166.171 188.830 C 173.201 182.158,178.932 176.963,179.800 176.475 C 180.754 175.938,180.875 175.925,181.423 176.306 M205.200 247.193 C 205.704 247.513,205.778 248.654,205.665 254.299 C 205.509 262.048,205.928 263.407,208.217 262.592 C 209.974 261.966,210.262 261.122,209.207 259.695 C 207.087 256.828,208.539 256.008,215.515 256.133 C 219.753 256.209,220.163 256.480,219.799 258.962 C 219.490 261.073,219.463 261.101,216.987 261.821 C 214.527 262.536,214.223 262.840,214.573 264.235 C 214.740 264.902,215.180 265.296,215.924 265.445 C 219.875 266.235,222.976 272.502,219.940 273.561 C 216.437 274.782,212.400 272.981,212.400 270.197 C 212.400 268.162,210.418 266.421,208.087 266.409 C 205.601 266.396,205.421 267.821,207.630 270.030 C 208.625 271.025,208.643 273.042,207.662 273.567 C 206.849 274.002,197.575 274.079,196.891 273.656 C 195.747 272.949,195.940 271.347,197.377 269.628 C 199.173 267.478,199.426 266.457,198.885 263.545 C 198.604 262.035,198.583 260.756,198.826 259.910 C 199.637 257.082,199.301 253.744,198.060 252.314 C 195.233 249.054,196.232 247.278,201.000 247.088 C 202.760 247.018,204.290 246.928,204.400 246.887 C 204.510 246.846,204.870 246.984,205.200 247.193 M190.168 248.127 C 191.339 248.983,191.429 252.594,190.299 253.385 C 189.409 254.009,184.362 254.267,183.033 253.757 C 182.380 253.507,182.107 249.630,182.643 248.233 C 182.961 247.404,189.062 247.318,190.168 248.127 M233.520 248.080 C 233.784 248.344,234.000 249.568,234.000 250.800 C 234.000 252.032,233.784 253.256,233.520 253.520 C 232.925 254.115,227.457 254.166,226.374 253.586 C 225.363 253.045,225.259 249.198,226.229 248.229 C 227.010 247.447,232.770 247.330,233.520 248.080 M151.038 250.866 C 152.034 251.863,151.486 253.315,149.812 254.113 C 148.174 254.895,147.859 256.993,149.037 259.271 C 149.387 259.948,149.933 261.376,150.250 262.444 C 151.224 265.725,153.223 266.084,154.021 263.123 C 154.275 262.178,154.825 260.736,155.242 259.918 C 156.359 257.729,156.253 255.164,155.000 254.075 C 153.920 253.136,153.655 251.305,154.480 250.480 C 155.276 249.684,164.572 249.829,165.393 250.650 C 166.490 251.748,166.002 253.301,164.299 254.133 C 162.472 255.026,162.116 256.158,163.007 258.243 C 163.372 259.099,163.910 260.573,164.202 261.518 C 165.373 265.310,168.000 267.041,168.000 264.020 C 168.000 263.676,168.470 262.511,169.044 261.433 C 170.640 258.435,170.828 255.099,169.452 254.197 C 168.202 253.379,167.916 250.671,169.033 250.243 C 170.246 249.777,179.016 249.976,179.520 250.480 C 180.568 251.528,180.057 253.091,178.045 254.996 C 176.596 256.368,175.966 257.332,175.609 258.723 C 175.132 260.582,173.916 263.242,173.013 264.400 C 172.467 265.101,170.400 271.207,170.400 272.120 C 170.400 273.514,169.254 274.001,166.071 273.960 C 160.888 273.893,160.880 273.886,159.972 269.077 C 159.317 265.606,156.917 267.007,156.237 271.258 C 155.827 273.822,155.537 274.000,151.777 274.000 C 147.135 274.000,146.514 273.701,146.209 271.320 C 145.917 269.034,144.312 264.754,143.016 262.800 C 142.505 262.030,141.965 260.680,141.816 259.800 C 141.490 257.879,140.004 255.603,138.154 254.192 C 136.565 252.980,136.370 251.547,137.671 250.635 C 138.983 249.716,150.080 249.908,151.038 250.866 M251.486 250.471 C 252.311 251.156,252.122 253.469,251.187 254.124 C 248.947 255.693,248.981 267.484,251.231 269.305 C 252.804 270.580,255.244 270.119,256.091 268.388 C 257.791 264.914,257.477 256.399,255.568 254.225 C 252.895 251.181,253.909 250.259,260.105 250.099 C 266.520 249.934,268.280 251.394,265.351 254.451 C 264.547 255.290,264.304 255.949,264.309 257.273 C 264.312 258.223,264.333 261.250,264.356 264.000 C 264.393 268.607,264.331 269.047,263.575 269.600 C 263.123 269.930,261.639 271.068,260.277 272.129 L 257.800 274.058 252.703 273.929 L 247.606 273.800 246.005 272.149 C 245.124 271.241,243.863 270.275,243.202 270.001 L 242.000 269.503 241.946 265.651 C 241.917 263.533,241.935 260.417,241.986 258.726 C 242.079 255.682,242.066 255.639,240.640 254.213 C 239.004 252.577,238.823 251.509,240.039 250.657 C 241.065 249.939,250.656 249.782,251.486 250.471 M234.047 262.324 L 233.933 267.971 235.367 269.447 C 236.963 271.091,237.289 272.912,236.100 273.544 C 235.157 274.045,225.131 274.010,224.500 273.503 C 223.351 272.581,223.921 270.635,225.800 269.065 C 228.415 266.879,228.488 263.728,225.977 261.474 C 224.496 260.145,224.364 259.866,224.477 258.308 L 224.600 256.600 228.600 256.400 C 234.588 256.101,234.181 255.657,234.047 262.324 M191.429 256.931 C 191.541 257.223,191.441 257.966,191.207 258.582 C 189.716 262.503,190.239 267.108,192.421 269.267 C 194.058 270.889,194.488 272.552,193.520 273.520 C 192.927 274.113,183.343 274.187,181.826 273.610 C 180.208 272.995,180.398 271.068,182.191 269.904 C 184.885 268.154,185.293 263.791,183.000 261.253 C 181.537 259.633,181.039 257.093,182.100 256.665 C 183.309 256.177,191.226 256.403,191.429 256.931 " stroke="none" fill="#449c1c" fill-rule="evenodd"></path></g></svg>